<svg xml:space="preserve" xmlns:xlink="http://www.w3.org/1999/xlink" xmlns="http://www.w3.org/2000/svg" viewBox="0 0 512 512"><defs><linearGradient id="a"><stop style="stop-color:#7ca4fe;stop-opacity:1" offset="0"/><stop style="stop-color:#4c5cf2;stop-opacity:1" offset="1"/></linearGradient><linearGradient xlink:href="#a" id="b" x1="388.595" y1="123.404" x2="123.405" y2="388.595" gradientUnits="userSpaceOnUse"/></defs><path style="fill:url(#b);fill-opacity:1;stroke-width:.976652" d="M130.988 6H68.482v468.793c0 11.231 6.056 21.681 15.823 27.15 9.766 5.47 21.778 5.372 31.447-.39L256 417.463l140.15 84.09c9.67 5.762 21.681 5.957 31.448.39 9.766-5.567 15.92-15.919 15.92-27.15V6Zm228.7 89.041c6.923-.076 11.75 3.707 16.298 8.293 6.113 7.596 6.777 18.642.784 26.883L239.629 318.783c-3.807 5.26-9.731 8.521-16.162 9.069-6.536.556-12.87-1.892-17.406-6.428l-68.575-68.574c-8.61-8.61-8.61-22.73 0-31.34s22.73-8.61 31.34 0l50.24 50.24 121.918-167.613c4.473-6.15 11.59-9.327 18.704-9.096z"/></svg>
