<svg xmlns="http://www.w3.org/2000/svg" xmlns:xlink="http://www.w3.org/1999/xlink" xml:space="preserve" viewBox="0 0 512 512"><defs><linearGradient id="a"><stop offset="0" style="stop-color:#7ca4fe;stop-opacity:1"/><stop offset="1" style="stop-color:#4c5cf2;stop-opacity:1"/></linearGradient><linearGradient xlink:href="#a" id="b" x1="388.595" x2="123.405" y1="123.404" y2="388.595" gradientTransform="matrix(.88 0 0 .88 30.72 -5.28)" gradientUnits="userSpaceOnUse"/></defs><path d="M145.99 0H90.984v412.538c0 9.884 5.33 19.08 13.924 23.893 8.594 4.813 19.165 4.727 27.674-.344l123.418-74 123.332 74c8.51 5.07 19.08 5.243 27.674.344 8.595-4.9 14.01-14.009 14.01-23.893V0Zm201.255 78.356c6.093-.067 10.34 3.262 14.343 7.298 5.38 6.684 5.963 16.405.69 23.657L241.592 275.25c-3.35 4.629-8.563 7.498-14.222 7.98-5.751.49-11.326-1.665-15.318-5.657l-60.345-60.345c-7.577-7.577-7.577-20.002 0-27.58 7.577-7.576 20.002-7.576 27.579 0l44.211 44.212 107.288-147.5c3.936-5.412 10.2-8.207 16.46-8.004z" style="fill:url(#b);fill-opacity:1;stroke-width:.859455"/></svg>
