<?xml version="1.0" encoding="UTF-8" standalone="no"?>
<!-- Created with Inkscape (http://www.inkscape.org/) -->

<svg
   width="512"
   height="512"
   viewBox="0 0 512 512"
   version="1.1"
   id="svg1"
   xml:space="preserve"
   xmlns:xlink="http://www.w3.org/1999/xlink"
   xmlns="http://www.w3.org/2000/svg"
   xmlns:svg="http://www.w3.org/2000/svg"><defs
     id="defs1"><linearGradient
       id="linearGradient1"><stop
         style="stop-color:#7ca4fe;stop-opacity:1;"
         offset="0"
         id="stop1" /><stop
         style="stop-color:#4c5cf2;stop-opacity:1;"
         offset="1"
         id="stop2" /></linearGradient><linearGradient
       xlink:href="#linearGradient1"
       id="linearGradient2"
       x1="388.59506"
       y1="123.40449"
       x2="123.40467"
       y2="388.59488"
       gradientUnits="userSpaceOnUse" /></defs><g
     id="layer1"><path
       id="path1"
       style="fill:url(#linearGradient2);fill-opacity:1;stroke-width:0.976652"
       d="M 130.98828,6 C 113.75037,6 68.482,6 68.482,6 c 0,0 0,45.267945 0,62.505859 l 4.22e-4,203.143551 v 203.14356 c 0,11.2315 6.055743,21.68114 15.822266,27.15039 9.766524,5.46926 21.778402,5.37162 31.447262,-0.39063 L 256,417.46289 396.15039,501.55273 c 9.66886,5.76225 21.68074,5.95755 31.44727,0.39063 9.76652,-5.56691 15.91992,-15.91889 15.91992,-27.15039 L 443.518,6 Z M 359.6875,95.041016 c 6.92391,-0.07611 11.74967,3.706695 16.29883,8.292964 6.11307,7.59569 6.77618,18.64249 0.7832,26.88282 L 239.62891,318.7832 c -3.80694,5.26051 -9.73129,8.52106 -16.16211,9.06836 -6.5353,0.55619 -12.87048,-1.89196 -17.40625,-6.42773 l -68.57422,-68.57422 c -8.61052,-8.61052 -8.61053,-22.72933 0,-31.33984 8.61052,-8.61052 22.72932,-8.61052 31.33984,0 L 219.06641,271.75 340.98438,104.13672 c 4.47271,-6.149988 11.58963,-9.326467 18.70312,-9.095704 z" /></g></svg>
